<?xml version="1.0" encoding="utf-8"?>
<!-- Generator: Adobe Illustrator 26.3.1, SVG Export Plug-In . SVG Version: 6.00 Build 0)  -->
<svg version="1.1" id="Layer_1" xmlns="http://www.w3.org/2000/svg" xmlns:xlink="http://www.w3.org/1999/xlink" x="0px" y="0px"
	 viewBox="0 0 33 33" style="enable-background:new 0 0 33 33;" xml:space="preserve">
<style type="text/css">
	.st0{fill:#C5152F;}
	.st1{fill:none;}
	.st2{fill:#39B54A;}
	.st3{fill:#ED1C24;}
</style>
<g>
	<path class="st0" d="M21.1,16.8c-0.7,0-1.3,0.2-1.9,0.4c0,0,0,0,0,0c0,0,0,0-0.1,0c-2,0.7-3.5,2.2-4.4,4c0,0,0,0,0,0c0,0,0,0,0,0.1
		c-0.3,0.6-0.5,1.2-0.6,1.8v0c0,0,0,0.1,0,0.1c-0.1,0.8-0.2,1.6,0,2.5c0,0,0,0,0,0c0,0,0,0.1,0,0.1c0,0,0,0,0,0.1c0,0,0,0,0,0
		c0,0,0,0.1,0,0.1c0,0,0,0,0,0c0.1,0.3,0.1,0.6,0.2,0.9c1.1,3.5,4.6,5.8,8.3,5.4c0.1,0,0.1,0,0.2,0c0,0,0.1,0,0.1,0l0,0
		c0.3,0,0.6-0.1,0.9-0.2c0,0,0,0,0,0c0,0,0.1,0,0.1,0c0.3-0.1,0.6-0.2,0.9-0.3c0,0,0.1,0,0.1,0c2.6-1.2,4.4-3.8,4.5-6.8
		C29.6,20.2,25.7,16.4,21.1,16.8z"/>
	<g>
		<path class="st1" d="M23.5,15.8C23.5,15.8,23.5,15.7,23.5,15.8C23.5,15.7,23.5,15.8,23.5,15.8z"/>
		<path class="st2" d="M21.2,2.3c-1.3-1-2.9-1.6-4.7-1.6s-3.4,0.6-4.7,1.6C10,3.7,8.8,5.9,8.8,8.5V11c0,0.4,0.4,0.6,0.7,0.5
			c0.6-0.3,1.2-0.5,1.8-0.6c0.3-0.1,0.6-0.4,0.6-0.7l0-1.7c0-2.6,2.2-4.7,4.8-4.6c2.5,0.1,4.5,2.2,4.5,4.8v4.2
			c0,0.2,0.1,0.5,0.3,0.6c0.8,0.7,1.4,1.5,2,2.3c0,0,0,0,0,0c0,0,0,0,0,0c0,0,0,0,0,0c0.1,0.2,0.4,0.2,0.5,0.1
			c0.1-0.1,0.2-0.3,0.2-0.5V8.5C24.3,5.9,23,3.7,21.2,2.3z"/>
	</g>
	<g>
		<path class="st1" d="M14.1,29.2c0.1,0.1,0.1,0.2,0.2,0.3C14.3,29.4,14.2,29.3,14.1,29.2z"/>
		<path class="st1" d="M12.2,28.1c0.1,0,0.2,0.1,0.3,0.1C12.4,28.2,12.3,28.2,12.2,28.1z"/>
		<path class="st1" d="M21.3,15.7c0,0-0.1,0-0.1,0C21.2,15.7,21.2,15.7,21.3,15.7z"/>
		<path class="st3" d="M21.6,15c-5.9-6.6-17.3-3-18,6.2C3,28,9.5,33.5,16,32c0.2-0.1,0.6-0.2,0.2-0.5c-0.8-0.6-1.4-1.2-1.9-2
			c0,0,0,0,0,0c0,0,0,0,0,0c-0.1-0.1-0.1-0.2-0.2-0.3c-0.3-0.4-0.6-0.7-1.6-1c-0.1,0-0.2-0.1-0.3-0.1c0,0,0,0,0,0c0,0,0,0,0,0
			c-2.9-0.8-5-3.5-4.7-6.7c0.3-4.8,5.7-7.6,9.8-5.1c0.2,0.1,0.4,0.2,0.5,0.2c0.1,0,0.3,0,0.4-0.1c0.9-0.4,1.9-0.6,3-0.7c0,0,0,0,0,0
			c0,0,0,0,0,0c0,0,0.1,0,0.1,0C21.7,15.7,22,15.5,21.6,15z"/>
	</g>
</g>
</svg>
